# xmcd
#
# Track frame offsets:
# 150
# 14647
# 31924
# 51757
# 66513
# 84367
# 100796
# 116012
# 132618
# 150755
# 176495
# 196836
# 210767
# 229652
#
# Disc length: 3245 seconds
#
#
# Revision: 0
# Processed by: cddbd v1.5PL3 Copyright (c) Steve Scherf et al.
# Submitted via: FreeRIP 2.30 
#
DISCID=ae0cab0e
DTITLE=The Smoke Daddy Band - The Smoke Daddy Band
DYEAR=1999
DGENRE=Blues
TTITLE0=Rockin' Wild
TTITLE1=Sadie
TTITLE2=How Many More years
TTITLE3=Wobble Walk
TTITLE4=Born Loser
TTITLE5=Feelin' The Blues
TTITLE6=Lovers man
TTITLE7=Chicago Blues
TTITLE8=Second Chances
TTITLE9=Elmo Done Moved
TTITLE10=Don't Wanna Hear It
TTITLE11=Cry For Me
TTITLE12=You Put The Hurt On Me
TTITLE13=More Blues
EXTD=
EXTT0=
EXTT1=
EXTT2=
EXTT3=
EXTT4=
EXTT5=
EXTT6=
EXTT7=
EXTT8=
EXTT9=
EXTT10=
EXTT11=
EXTT12=
EXTT13=
PLAYORDER=
